<?xml version="1.0" standalone="no"?>
<!DOCTYPE svg PUBLIC "-//W3C//DTD SVG 20010904//EN"
 "http://www.w3.org/TR/2001/REC-SVG-20010904/DTD/svg10.dtd">
<svg version="1.0" xmlns="http://www.w3.org/2000/svg"
 width="900.000000pt" height="900.000000pt" viewBox="0 0 900.000000 900.000000"
 preserveAspectRatio="xMidYMid meet">

<g transform="translate(0.000000,900.000000) scale(0.100000,-0.100000)"
fill="#000000" stroke="none">
<path d="M6234 7684 c-414 -312 -910 -708 -936 -748 -20 -30 16 -30 152 -1
231 51 408 72 442 54 25 -14 28 -4 -71 -289 -45 -129 -101 -293 -125 -365 -25
-71 -77 -222 -117 -335 -39 -113 -77 -223 -84 -245 -8 -22 -30 -85 -50 -140
-20 -55 -42 -118 -50 -140 -7 -22 -27 -78 -44 -125 -16 -47 -48 -134 -70 -195
-70 -198 -161 -440 -171 -457 -6 -10 -10 -23 -10 -30 -1 -7 -9 -31 -20 -53
-11 -22 -19 -45 -20 -51 0 -6 -13 -42 -29 -80 -17 -38 -51 -123 -76 -189 -177
-454 -269 -624 -377 -698 -84 -56 -141 -22 -216 128 -39 78 -107 235 -123 285
-4 14 -17 50 -29 80 -11 30 -62 179 -111 330 -50 151 -99 300 -109 330 -10 30
-28 89 -40 130 -13 41 -35 116 -51 165 -15 50 -42 137 -59 195 -17 58 -40 130
-49 160 -20 60 -70 223 -102 335 -12 39 -27 86 -34 105 -7 19 -24 73 -38 120
-129 427 -398 1200 -467 1339 -4 9 -31 65 -60 124 -43 86 -65 118 -109 159
-115 105 -353 176 -550 165 -134 -8 -367 -55 -400 -81 -11 -9 -13 -249 -8
-1541 6 -1483 14 -1936 37 -1943 5 -2 10 -18 11 -35 0 -23 2 -27 7 -14 7 15
12 13 42 -18 19 -19 38 -35 43 -35 10 0 41 -27 122 -105 23 -22 59 -52 82 -67
22 -15 53 -38 68 -52 15 -14 32 -26 36 -26 5 0 9 -7 9 -15 0 -8 7 -15 15 -15
8 0 15 -4 15 -9 0 -5 13 -14 29 -21 20 -8 32 -21 36 -41 7 -31 25 -30 25 1 0
43 19 25 31 -30 7 -33 16 -60 20 -60 4 0 9 -12 11 -27 2 -16 7 33 12 107 15
256 24 957 23 1802 -2 856 0 896 32 862 10 -10 38 -81 50 -129 4 -17 13 -39
19 -50 6 -11 22 -54 36 -95 14 -41 39 -113 56 -160 17 -47 40 -110 50 -140 11
-30 35 -100 55 -155 59 -162 105 -294 136 -390 16 -49 34 -99 39 -110 5 -11
82 -238 170 -505 88 -267 165 -494 170 -505 5 -11 13 -36 19 -55 10 -37 207
-614 236 -690 9 -25 22 -63 30 -85 7 -22 18 -51 23 -65 6 -14 27 -68 47 -120
20 -52 44 -111 52 -130 9 -19 25 -55 35 -80 43 -99 114 -230 164 -306 38 -58
133 -159 179 -190 35 -24 107 -39 187 -37 96 1 200 67 257 163 48 79 159 316
251 530 34 80 65 154 70 165 22 49 73 176 96 235 14 36 31 78 39 93 8 16 15
33 15 39 0 5 7 24 15 41 13 29 67 168 131 337 14 36 32 77 40 92 8 14 14 31
14 38 0 7 7 26 15 43 15 35 47 117 161 422 41 110 81 214 88 230 8 17 26 64
41 105 36 97 78 211 105 280 12 30 34 89 49 130 261 710 335 910 347 937 8 17
14 35 14 40 0 4 41 133 91 286 57 173 97 281 107 284 23 9 153 -60 324 -173
86 -57 164 -107 172 -110 22 -8 21 20 -3 65 -11 20 -33 65 -49 101 -17 36 -56
119 -87 185 -32 66 -87 183 -122 260 -36 77 -86 185 -112 240 -26 55 -63 133
-82 174 -54 118 -76 156 -91 159 -8 2 -73 -41 -144 -94z"/>
<path d="M6769 3374 c-1 -21 -3 -31 -6 -21 -2 9 -9 17 -14 17 -5 0 -9 -8 -9
-17 0 -14 -2 -15 -9 -5 -6 11 -10 10 -16 -5 -5 -10 -9 -20 -9 -23 -3 -13 -31
-76 -36 -80 -3 -3 -14 -22 -23 -42 -10 -21 -22 -38 -26 -38 -4 0 -16 -18 -26
-40 -10 -22 -22 -40 -27 -40 -4 0 -8 -9 -8 -20 0 -24 -46 -96 -66 -104 -8 -3
-14 -16 -14 -30 0 -14 -5 -28 -10 -31 -6 -4 -20 -29 -32 -56 -12 -27 -25 -49
-30 -49 -4 0 -8 -8 -8 -17 0 -9 -15 -32 -32 -50 -18 -19 -33 -39 -34 -46 -2
-32 -28 -76 -52 -87 l-27 -13 25 -8 c14 -4 39 -8 55 -8 47 -2 9 -21 -42 -21
-45 0 -100 -17 -89 -27 3 -4 75 -10 159 -14 83 -5 184 -15 222 -23 39 -9 92
-16 118 -16 47 0 102 20 109 40 5 16 -10 635 -19 772 -9 124 -22 181 -24 102z"/>
<path d="M2113 1843 c-10 -4 -13 -89 -13 -378 0 -364 1 -375 20 -385 12 -6 32
-7 51 -3 l31 8 1 300 c1 177 6 302 11 305 10 5 76 -108 172 -290 60 -114 71
-127 90 -114 9 5 32 39 51 74 91 168 150 278 168 313 11 20 24 36 30 34 6 -2
10 -113 11 -312 1 -306 1 -309 23 -316 12 -5 32 -4 46 1 l25 10 0 374 0 374
-22 6 c-42 11 -86 6 -106 -11 -11 -10 -41 -58 -67 -108 -73 -138 -145 -264
-155 -270 -24 -15 -28 -9 -181 273 -31 57 -62 108 -70 113 -15 9 -95 11 -116
2z"/>
<path d="M3092 1841 c-11 -6 -14 -84 -14 -381 -1 -360 -1 -374 18 -379 10 -4
129 -4 264 -1 229 5 245 6 248 24 2 10 -2 22 -10 27 -7 5 -97 9 -200 9 -102 0
-193 3 -202 6 -14 5 -16 28 -16 145 l0 139 26 10 c14 6 104 10 200 10 147 0
176 2 180 15 4 8 1 22 -6 30 -10 12 -46 15 -194 15 -99 0 -187 4 -194 8 -9 7
-12 40 -10 133 l3 124 210 6 c116 3 211 6 213 7 1 1 2 11 2 22 0 12 -10 24
-24 30 -30 11 -477 13 -494 1z"/>
<path d="M3798 1839 c-16 -9 -17 -42 -18 -379 l0 -370 22 -9 c24 -9 88 -3 88
8 3 669 1 745 -17 752 -26 11 -55 10 -75 -2z"/>
<path d="M4265 1844 c-86 -20 -132 -43 -182 -89 -50 -48 -53 -53 -53 -101 0
-40 6 -58 28 -86 28 -38 102 -88 128 -88 8 0 27 -6 42 -14 15 -7 44 -16 64
-20 21 -4 61 -17 91 -31 144 -63 144 -187 -1 -251 -72 -32 -148 -32 -248 1
-98 32 -104 32 -104 -4 0 -36 2 -37 90 -62 155 -43 313 -18 407 64 90 80 99
182 20 255 -25 24 -142 75 -207 92 -124 32 -200 83 -200 135 0 112 173 172
315 109 32 -14 64 -23 71 -20 17 7 18 50 2 63 -40 31 -205 61 -263 47z"/>
<path d="M4732 1843 c-28 -5 -39 -28 -22 -48 9 -11 41 -15 128 -17 l117 -3 3
-346 2 -347 26 -5 c15 -2 37 -2 51 2 l25 7 1 344 2 345 123 5 c91 4 125 9 131
19 14 22 3 38 -31 45 -34 7 -520 6 -556 -1z"/>
<path d="M5442 1841 c-11 -7 -14 -81 -13 -382 0 -350 1 -374 18 -379 10 -3
128 -3 263 0 229 5 245 6 248 24 2 10 -2 22 -10 27 -7 5 -99 9 -203 9 -135 0
-195 4 -203 12 -17 17 -17 274 1 285 6 4 97 10 202 13 176 5 190 6 193 24 2
10 -2 22 -10 27 -7 5 -95 9 -194 9 -133 0 -184 3 -192 13 -15 18 -14 240 1
249 7 4 96 8 199 8 102 0 193 3 202 6 25 10 19 43 -10 54 -31 12 -474 13 -492
1z"/>
<path d="M6148 1840 c-16 -10 -17 -42 -17 -381 l0 -370 26 -10 c16 -6 36 -6
52 -1 l26 9 5 159 5 159 93 3 c84 2 97 0 141 -23 60 -33 78 -64 111 -194 25
-101 27 -105 57 -113 43 -11 88 6 78 30 -4 9 -14 42 -22 72 -41 159 -70 212
-130 236 -43 19 -41 45 6 58 50 14 117 82 130 133 26 97 -29 179 -145 217 -47
16 -94 21 -229 23 -106 2 -176 -1 -187 -7z m380 -79 c53 -27 74 -54 79 -103 7
-67 -20 -106 -98 -145 -59 -30 -72 -33 -161 -33 -59 0 -99 4 -103 11 -8 12 -7
268 1 281 3 4 59 8 125 8 98 0 127 -3 157 -19z"/>
</g>
</svg>
